#!OML:ASF E:\Style3\Style3.ASF
:FULLY-SPECIFIED
:DEGREES
1669
root 0.182625 17.7607 1.53243 -130.867 67.0583 200.799
lowerback 5.81095 -2.40394 -14.5399
upperback -5.23736 -4.45792 -10.4585
thorax -8.75523 -1.22869 -2.75771
lowerneck -16.5891 -5.52086 -9.18721
upperneck 18.32 -7.60539 11.2444
head 9.30522 -2.99867 4.41016
rclavicle 3.81667e-014 -6.36111e-014
rhumerus -101.373 38.7168 -133.823
rradius 93.3452
rwrist -5.54748
rhand -9.75949 33.1021
rfingers 7.12502
rthumb 16.2152 3.7603
lclavicle 3.81667e-014 -6.36111e-014
lhumerus 22.3355 48.2563 15.112
lradius 85.6803
lwrist -1.02138
lhand 27.8633 43.1267
lfingers 7.12502
lthumb 51.7761 63.3644
rfemur -22.0392 2.64365 33.5333
rtibia -3.02153e-014
rfoot -7.13706 -25.8155
rtoes -10.4908
lfemur -40.6817 -30.765 18.0093
ltibia 14.8914
lfoot -10.1192 28.7919
ltoes -26.2877
1670
root 0.167522 17.7585 1.53232 -130.638 66.5055 200.551
lowerback 6.03696 -2.41127 -14.5366
upperback -4.99743 -4.47396 -10.6014
thorax -8.6295 -1.24791 -2.902
lowerneck -16.7745 -5.65244 -9.31364
upperneck 18.3529 -7.77393 11.3561
head 9.381 -3.06953 4.44485
rclavicle 6.36111e-014 -6.67916e-014
rhumerus -100.798 38.726 -133.495
rradius 93.1725
rwrist -5.38979
rhand -9.5748 32.9871
rfingers 7.12502
rthumb 16.3931 3.65985
lclavicle 6.36111e-014 -6.67916e-014
lhumerus 22.6501 48.2209 15.5977
lradius 85.9808
lwrist -0.891385
lhand 27.6923 42.9323
lfingers 7.12502
lthumb 51.6208 63.2605
rfemur -22.6484 2.36194 33.8354
rtibia -7.4743e-014
rfoot -7.02202 -25.8266
rtoes -10.6261
lfemur -41.7364 -30.876 18.9176
ltibia 15.1032
lfoot -10.0708 28.985
ltoes -26.506
1671
root 0.153969 17.7582 1.52964 -130.534 65.9915 200.268
lowerback 6.29524 -2.4291 -14.5328
upperback -4.70195 -4.5022 -10.7439
thorax -8.45952 -1.27662 -3.04145
lowerneck -17.0424 -5.75042 -9.3115
upperneck 18.3684 -7.90967 11.4119
head 9.45457 -3.11925 4.44102
rclavicle -6.52014e-014 -8.5875e-014
rhumerus -100.32 38.8471 -133.297
rradius 93.0268
rwrist -5.36583
rhand -9.51558 32.7649
rfingers 7.12502
rthumb 16.4501 3.4424
lclavicle -6.52014e-014 -8.5875e-014
lhumerus 22.7909 48.2229 15.9521
lradius 86.3546
lwrist -0.7611
lhand 27.8549 42.7326
lfingers 7.12502
lthumb 51.7684 62.9748
rfemur -23.1418 2.06862 34.0938
rtibia 1.82882e-014
rfoot -6.94395 -25.8242
rtoes -10.7601
lfemur -42.6498 -31.1289 19.7873
ltibia 15.1846
lfoot -10.0557 29.3126
ltoes -26.646
1672
root 0.141134 17.7577 1.52616 -130.474 65.5912 199.953
lowerback 6.49419 -2.43995 -14.633
upperback -4.41089 -4.5118 -10.9118
thorax -8.25649 -1.28933 -3.159
lowerneck -17.1212 -5.80759 -9.28759
upperneck 18.2157 -7.99471 11.4718
head 9.42827 -3.15239 4.44132
rclavicle 3.49861e-014 4.77083e-014
rhumerus -99.8913 38.8825 -133.087
rradius 92.964
rwrist -5.28934
rhand -9.4725 32.6794
rfingers 7.12502
rthumb 16.4916 3.36031
lclavicle 3.49861e-014 4.77083e-014
lhumerus 23.302 48.3208 16.5345
lradius 86.5594
lwrist -0.878605
lhand 28.0808 42.7836
lfingers 7.12502
lthumb 51.9735 62.905
rfemur -23.6255 1.83259 34.2567
rtibia 5.00937e-014
rfoot -6.60221 -25.8418
rtoes -11.6985
lfemur -43.5009 -31.4335 20.6023
ltibia 15.2363
lfoot -10.2223 29.654
ltoes -26.3779
1673
root 0.12674 17.7586 1.52338 -130.313 65.1818 199.683
lowerback 6.74756 -2.43705 -14.7711
upperback -4.21293 -4.53467 -11.0373
thorax -8.18439 -1.29678 -3.21117
lowerneck -17.0109 -5.88404 -9.3638
upperneck 18.0541 -8.08255 11.4867
head 9.36639 -3.2055 4.44425
rclavicle 2.54444e-014 3.49861e-014
rhumerus -99.5293 38.7871 -132.832
rradius 92.8876
rwrist -5.14456
rhand -9.31933 32.8217
rfingers 7.12502
rthumb 16.639 3.5149
lclavicle 2.54444e-014 3.49861e-014
lhumerus 23.9179 48.4515 17.1552
lradius 86.6539
lwrist -0.926758
lhand 28.2573 43.0937
lfingers 7.12502
lthumb 52.1336 63.1197
rfemur -24.1777 1.61797 34.4346
rtibia 4.77083e-015
rfoot -6.4351 -25.8459
rtoes -11.9574
lfemur -44.2872 -31.4374 21.2583
ltibia 15.27
lfoot -9.71008 29.785
ltoes -27.2782
1674
root 0.112835 17.7603 1.5216 -130.159 64.7347 199.381
lowerback 7.05039 -2.48286 -14.9194
upperback -4.06816 -4.64495 -11.1049
thorax -8.19094 -1.34001 -3.18378
lowerneck -16.9372 -5.98974 -9.58243
upperneck 17.9835 -8.18136 11.5115
head 9.35076 -3.27029 4.47433
rclavicle 1.90833e-014 1.17681e-013
rhumerus -99.2177 38.7998 -132.625
rradius 92.7609
rwrist -5.09602
rhand -9.00192 32.7636
rfingers 7.12502
rthumb 16.9446 3.48272
lclavicle 1.90833e-014 1.17681e-013
lhumerus 24.2841 48.5262 17.5164
lradius 86.7238
lwrist -0.706635
lhand 28.6013 43.2424
lfingers 7.12502
lthumb 52.4452 63.0798
rfemur -24.7552 1.3798 34.643
rtibia -6.12257e-014
rfoot -6.32197 -25.8987
rtoes -12.0429
lfemur -45.1406 -31.4922 22.0052
ltibia 15.3047
lfoot -9.0999 29.9808
ltoes -28.3996
1675
root 0.0998897 17.7615 1.5182 -129.971 64.3135 199.115
lowerback 7.36668 -2.55899 -15.0333
upperback -3.93139 -4.79862 -11.1548
thorax -8.21228 -1.40546 -3.14868
lowerneck -17.1121 -6.05456 -9.84361
upperneck 18.0678 -8.21752 11.5962
head 9.43211 -3.29103 4.54202
rclavicle -9.54166e-015 -3.18055e-014
rhumerus -99.0436 38.9911 -132.56
rradius 92.6818
rwrist -5.21508
rhand -8.77907 32.6756
rfingers 7.12502
rthumb 17.1591 3.41323
lclavicle -9.54166e-015 -3.18055e-014
lhumerus 24.507 48.6005 17.7558
lradius 86.8098
lwrist -0.452803
lhand 28.515 43.2899
lfingers 7.12502
lthumb 52.367 63.175
rfemur -25.3259 1.16787 34.8385
rtibia -3.65764e-014
rfoot -6.20621 -25.9477
rtoes -12.3082
lfemur -46.0903 -31.7002 22.9197
ltibia 15.3627
lfoot -9.01312 30.3287
ltoes -28.4978
1676
root 0.0843909 17.7609 1.51372 -129.7 63.8139 198.913
lowerback 7.74968 -2.64464 -14.9962
upperback -3.82184 -4.97682 -11.1735
thorax -8.30999 -1.4889 -3.15295
lowerneck -17.3508 -6.08117 -10.0785
upperneck 18.2391 -8.19278 11.6186
head 9.54396 -3.28446 4.59331
rclavicle 2.22639e-014 1.01778e-013
rhumerus -98.9641 39.1889 -132.507
rradius 92.6299
rwrist -5.2827
rhand -8.79912 32.706
rfingers 7.12502
rthumb 17.1398 3.44197
lclavicle 2.22639e-014 1.01778e-013
lhumerus 24.105 48.5247 17.5209
lradius 87.0687
lwrist -0.000213966
lhand 28.1055 43.4184
lfingers 7.12502
lthumb 51.9959 63.5265
rfemur -25.9387 0.935298 35.112
rtibia -5.48646e-014
rfoot -6.03091 -25.9992
rtoes -12.5303
lfemur -47.0046 -31.6423 23.7329
ltibia 15.3885
lfoot -8.96771 30.4047
ltoes -28.3407
1677
root 0.0620424 17.7558 1.51338 -129.572 63.2958 198.54
lowerback 8.27193 -2.72246 -14.9771
upperback -3.70398 -5.1762 -11.218
thorax -8.48157 -1.57693 -3.169
lowerneck -17.5606 -6.14745 -10.2316
upperneck 18.3789 -8.23257 11.5852
head 9.64141 -3.31002 4.60078
rclavicle 4.13472e-014 1.36764e-013
rhumerus -98.577 39.2607 -132.268
rradius 92.4684
rwrist -5.24903
rhand -8.98441 32.7119
rfingers 7.12502
rthumb 16.9614 3.4325
lclavicle 4.13472e-014 1.36764e-013
lhumerus 23.3349 48.3619 17.0661
lradius 87.4808
lwrist 0.492429
lhand 27.7253 43.4387
lfingers 7.12502
lthumb 51.6507 63.7495
rfemur -26.6031 0.656623 35.3648
rtibia -4.13472e-014
rfoot -5.8892 -26.0539
rtoes -12.5929
lfemur -47.8518 -31.2295 24.2253
ltibia 15.3801
lfoot -8.68686 30.0458
ltoes -28.3306
1678
root 0.0359418 17.7442 1.51854 -129.596 62.8332 197.984
lowerback 8.89925 -2.77613 -15.1778
upperback -3.5959 -5.38892 -11.2574
thorax -8.70846 -1.6519 -3.05873
lowerneck -17.6694 -6.25866 -10.3774
upperneck 18.4317 -8.35089 11.6049
head 9.70232 -3.37065 4.61343
rclavicle 4.13472e-014 1.52667e-013
rhumerus -98.2214 39.2201 -131.966
rradius 92.3869
rwrist -5.17849
rhand -8.94137 32.8596
rfingers 7.12502
rthumb 17.0029 3.58373
lclavicle 4.13472e-014 1.52667e-013
lhumerus 22.9516 48.202 16.9377
lradius 87.7842
lwrist 0.92471
lhand 27.1695 43.5157
lfingers 7.12502
lthumb 51.1452 64.1157
rfemur -27.2921 0.361064 35.5613
rtibia -5.1684e-014
rfoot -5.83659 -26.1055
rtoes -12.1653
lfemur -48.7499 -30.7121 24.584
ltibia 15.44
lfoot -8.50918 29.5099
ltoes -28.0829
1679
root 0.0127904 17.7338 1.52109 -129.37 62.3664 197.653
lowerback 9.36648 -2.8414 -15.3144
upperback -3.51391 -5.58145 -11.2432
thorax -8.86881 -1.72466 -2.92751
lowerneck -17.6044 -6.31866 -10.5883
upperneck 18.378 -8.39379 11.6655
head 9.68957 -3.40366 4.66353
rclavicle -1.27222e-014 7.63333e-014
rhumerus -98.124 39.1637 -131.752
rradius 92.3797
rwrist -5.02521
rhand -8.79643 32.9964
rfingers 7.12502
rthumb 17.1424 3.73262
lclavicle -1.27222e-014 7.63333e-014
lhumerus 22.8165 47.9749 17.0212
lradius 87.9783
lwrist 1.28598
lhand 26.3572 43.4505
lfingers 7.12502
lthumb 50.4043 64.4584
rfemur -28.0009 0.15209 35.8255
rtibia -1.98785e-014
rfoot -5.86336 -26.1433
rtoes -11.6835
lfemur -49.6591 -30.1728 25.0377
ltibia 15.5769
lfoot -8.40053 29.0274
ltoes -27.8638
1680
root -0.00558336 17.7316 1.51895 -128.95 61.9028 197.474
lowerback 9.64215 -2.92169 -15.3029
upperback -3.42102 -5.73165 -11.2346
thorax -8.91708 -1.79388 -2.88951
lowerneck -17.5609 -6.37433 -10.7871
upperneck 18.3308 -8.4266 11.6982
head 9.67991 -3.43336 4.70293
rclavicle 3.49861e-014 4.77083e-014
rhumerus -97.9673 39.1442 -131.544
rradius 92.3325
rwrist -4.88184
rhand -8.94029 32.9239
rfingers 7.12502
rthumb 17.0039 3.64815
lclavicle 3.49861e-014 4.77083e-014
lhumerus 22.7573 47.7951 17.2161
lradius 88.2102
lwrist 1.19263
lhand 26.1076 43.4107
lfingers 7.12502
lthumb 50.1761 64.5405
rfemur -28.7579 0.00484925 36.1139
rtibia -5.725e-014
rfoot -5.6394 -26.1952
rtoes -11.7599
lfemur -50.6955 -29.809 25.7358
ltibia 15.7449
lfoot -8.06874 28.9189
ltoes -28.0345
1681
root -0.0222942 17.7344 1.51411 -128.559 61.4843 197.29
lowerback 9.85808 -2.98634 -15.3191
upperback -3.27945 -5.83936 -11.2426
thorax -8.87578 -1.84687 -2.86171
lowerneck -17.5547 -6.47629 -10.9227
upperneck 18.1945 -8.53221 11.7257
head 9.65243 -3.49342 4.71589
rclavicle -6.99722e-014 -6.99722e-014
rhumerus -97.7052 39.2009 -131.228
rradius 92.3445
rwrist -4.87696
rhand -8.95262 32.87
rfingers 7.12502
rthumb 16.992 3.59318
lclavicle -6.99722e-014 -6.99722e-014
lhumerus 22.723 47.7743 17.4485
lradius 88.5238
lwrist 0.947093
lhand 26.4815 43.2843
lfingers 7.12502
lthumb 50.5177 64.2309
rfemur -29.4864 -0.130912 36.35
rtibia 4.77083e-015
rfoot -5.44855 -26.2423
rtoes -11.9074
lfemur -51.7609 -29.6097 26.5325
ltibia 15.9062
lfoot -7.97807 28.9706
ltoes -27.2985
1682
root -0.0394526 17.7257 1.50943 -128.189 61.01 197.082
lowerback 10.1008 -3.02951 -15.3095
upperback -3.17515 -5.93051 -11.2306
thorax -8.89391 -1.8899 -2.82741
lowerneck -17.2316 -6.56094 -11.1463
upperneck 17.8753 -8.62827 11.8633
head 9.51183 -3.5563 4.78584
rclavicle -2.8625e-014 1.20861e-013
rhumerus -97.5108 39.0139 -130.839
rradius 92.3917
rwrist -4.80206
rhand -8.84223 32.859
rfingers 7.12502
rthumb 17.0983 3.59142
lclavicle -2.8625e-014 1.20861e-013
lhumerus 22.699 47.6726 17.7191
lradius 88.9061
lwrist 0.774283
lhand 27.0022 43.2394
lfingers 7.12502
lthumb 50.9927 63.9248
rfemur -30.2104 -0.301669 36.6319
rtibia 1.59028e-015
rfoot -5.30403 -26.2789
rtoes -12.0295
lfemur -52.7197 -29.2688 27.1851
ltibia 16.0773
lfoot -7.72786 28.8235
ltoes -27.6794
